# xmcd
#
# Track frame offsets: 
#        150
#        19085
#        39935
#        56580
#        82510
#        115925
#        142842
#        155447
#        166135
#        185095
#        233375
#
# Disc length: 3372 seconds
#
# Revision: 2
# Processed by: cddbd v1.5.2PL0 Copyright (c) Steve Scherf et al.
# Submitted via: ExactAudioCopy v1.1
#
DISCID=740d2a0b
DTITLE=Luther Allison - Bad News Is Coming
DYEAR=1972
DGENRE=Blues
TTITLE0=The Little Red Rooster
TTITLE1=Evil Is Going On
TTITLE2=Raggedy And Dirty
TTITLE3=Rock Me Baby
TTITLE4=Bad News Is Coming
TTITLE5=Cut You A-Loose
TTITLE6=Dust My Broom
TTITLE7=The Stumble
TTITLE8=Sweet Home Chicago
TTITLE9=It's Been A Long Time
TTITLE10=Take My Love (I Want To Give It All To You)
EXTD=YEAR: 2001 ID3G: 0
EXTT0=
EXTT1=
EXTT2=
EXTT3=
EXTT4=
EXTT5=
EXTT6=
EXTT7=
EXTT8=
EXTT9=
EXTT10=
PLAYORDER=
